<svg width="244" height="63" viewBox="0 0 244 63" fill="none" xmlns="http://www.w3.org/2000/svg">
<path d="M3.54 36V15H21.21V36H19.02V16.32L19.59 16.92H5.16L5.73 16.32V36H3.54ZM35.9159 36.15C34.5559 36.15 33.3259 35.84 32.2259 35.22C31.1259 34.58 30.2459 33.67 29.5859 32.49C28.9459 31.29 28.6259 29.83 28.6259 28.11C28.6259 26.39 28.9459 24.94 29.5859 23.76C30.2259 22.56 31.0959 21.65 32.1959 21.03C33.2959 20.41 34.5359 20.1 35.9159 20.1C37.4159 20.1 38.7559 20.44 39.9359 21.12C41.1359 21.78 42.0759 22.72 42.7559 23.94C43.4359 25.14 43.7759 26.53 43.7759 28.11C43.7759 29.71 43.4359 31.11 42.7559 32.31C42.0759 33.51 41.1359 34.45 39.9359 35.13C38.7559 35.81 37.4159 36.15 35.9159 36.15ZM27.7859 41.82V20.25H29.8259V24.99L29.6159 28.14L29.9159 31.32V41.82H27.7859ZM35.7659 34.26C36.8859 34.26 37.8859 34.01 38.7659 33.51C39.6459 32.99 40.3459 32.27 40.8659 31.35C41.3859 30.41 41.6459 29.33 41.6459 28.11C41.6459 26.89 41.3859 25.82 40.8659 24.9C40.3459 23.98 39.6459 23.26 38.7659 22.74C37.8859 22.22 36.8859 21.96 35.7659 21.96C34.6459 21.96 33.6359 22.22 32.7359 22.74C31.8559 23.26 31.1559 23.98 30.6359 24.9C30.1359 25.82 29.8859 26.89 29.8859 28.11C29.8859 29.33 30.1359 30.41 30.6359 31.35C31.1559 32.27 31.8559 32.99 32.7359 33.51C33.6359 34.01 34.6459 34.26 35.7659 34.26ZM48.3523 36V20.25H50.4823V32.76L61.0123 20.25H62.9023V36H60.7723V23.46L50.2723 36H48.3523ZM75.4866 36.15C73.9666 36.15 72.5966 35.81 71.3766 35.13C70.1766 34.43 69.2266 33.48 68.5266 32.28C67.8266 31.06 67.4766 29.67 67.4766 28.11C67.4766 26.53 67.8266 25.14 68.5266 23.94C69.2266 22.74 70.1766 21.8 71.3766 21.12C72.5766 20.44 73.9466 20.1 75.4866 20.1C77.0466 20.1 78.4266 20.44 79.6266 21.12C80.8466 21.8 81.7966 22.74 82.4766 23.94C83.1766 25.14 83.5266 26.53 83.5266 28.11C83.5266 29.67 83.1766 31.06 82.4766 32.28C81.7966 33.48 80.8466 34.43 79.6266 35.13C78.4066 35.81 77.0266 36.15 75.4866 36.15ZM75.4866 34.26C76.6266 34.26 77.6366 34.01 78.5166 33.51C79.3966 32.99 80.0866 32.27 80.5866 31.35C81.1066 30.41 81.3666 29.33 81.3666 28.11C81.3666 26.87 81.1066 25.79 80.5866 24.87C80.0866 23.95 79.3966 23.24 78.5166 22.74C77.6366 22.22 76.6366 21.96 75.5166 21.96C74.3966 21.96 73.3966 22.22 72.5166 22.74C71.6366 23.24 70.9366 23.95 70.4166 24.87C69.8966 25.79 69.6366 26.87 69.6366 28.11C69.6366 29.33 69.8966 30.41 70.4166 31.35C70.9366 32.27 71.6366 32.99 72.5166 33.51C73.3966 34.01 74.3866 34.26 75.4866 34.26ZM95.1588 36.18C93.8788 36.18 92.7388 35.97 91.7388 35.55C90.7588 35.13 89.9188 34.49 89.2188 33.63C88.5188 32.77 87.9888 31.71 87.6288 30.45C87.2688 29.17 87.0888 27.69 87.0888 26.01C87.0888 24.51 87.2288 23.2 87.5088 22.08C87.7888 20.94 88.1788 19.96 88.6788 19.14C89.1788 18.32 89.7588 17.63 90.4188 17.07C91.0988 16.49 91.8288 16.03 92.6088 15.69C93.4088 15.33 94.2288 15.06 95.0688 14.88L102.149 13.23L102.509 15.21L95.8488 16.71C95.4288 16.81 94.9188 16.95 94.3188 17.13C93.7388 17.31 93.1388 17.58 92.5188 17.94C91.9188 18.3 91.3588 18.8 90.8388 19.44C90.3188 20.08 89.8988 20.91 89.5788 21.93C89.2788 22.93 89.1288 24.18 89.1288 25.68C89.1288 26 89.1388 26.26 89.1588 26.46C89.1788 26.64 89.1988 26.84 89.2188 27.06C89.2588 27.26 89.2888 27.56 89.3088 27.96L88.3788 27.18C88.5988 25.96 89.0488 24.9 89.7288 24C90.4088 23.08 91.2588 22.37 92.2788 21.87C93.3188 21.35 94.4688 21.09 95.7288 21.09C97.1888 21.09 98.4888 21.41 99.6288 22.05C100.769 22.67 101.659 23.54 102.299 24.66C102.959 25.78 103.289 27.08 103.289 28.56C103.289 30.02 102.949 31.33 102.269 32.49C101.609 33.65 100.669 34.56 99.4488 35.22C98.2288 35.86 96.7988 36.18 95.1588 36.18ZM95.3988 34.41C96.5188 34.41 97.5088 34.16 98.3688 33.66C99.2288 33.14 99.8988 32.44 100.379 31.56C100.879 30.68 101.129 29.69 101.129 28.59C101.129 27.51 100.879 26.55 100.379 25.71C99.8988 24.87 99.2288 24.21 98.3688 23.73C97.5088 23.23 96.5088 22.98 95.3688 22.98C94.2488 22.98 93.2588 23.22 92.3988 23.7C91.5388 24.16 90.8588 24.81 90.3588 25.65C89.8788 26.49 89.6388 27.46 89.6388 28.56C89.6388 29.66 89.8788 30.65 90.3588 31.53C90.8588 32.41 91.5388 33.11 92.3988 33.63C93.2788 34.15 94.2788 34.41 95.3988 34.41ZM115.984 36.15C114.624 36.15 113.394 35.84 112.294 35.22C111.194 34.58 110.314 33.67 109.654 32.49C109.014 31.29 108.694 29.83 108.694 28.11C108.694 26.39 109.014 24.94 109.654 23.76C110.294 22.56 111.164 21.65 112.264 21.03C113.364 20.41 114.604 20.1 115.984 20.1C117.484 20.1 118.824 20.44 120.004 21.12C121.204 21.78 122.144 22.72 122.824 23.94C123.504 25.14 123.844 26.53 123.844 28.11C123.844 29.71 123.504 31.11 122.824 32.31C122.144 33.51 121.204 34.45 120.004 35.13C118.824 35.81 117.484 36.15 115.984 36.15ZM107.854 41.82V20.25H109.894V24.99L109.684 28.14L109.984 31.32V41.82H107.854ZM115.834 34.26C116.954 34.26 117.954 34.01 118.834 33.51C119.714 32.99 120.414 32.27 120.934 31.35C121.454 30.41 121.714 29.33 121.714 28.11C121.714 26.89 121.454 25.82 120.934 24.9C120.414 23.98 119.714 23.26 118.834 22.74C117.954 22.22 116.954 21.96 115.834 21.96C114.714 21.96 113.704 22.22 112.804 22.74C111.924 23.26 111.224 23.98 110.704 24.9C110.204 25.82 109.954 26.89 109.954 28.11C109.954 29.33 110.204 30.41 110.704 31.35C111.224 32.27 111.924 32.99 112.804 33.51C113.704 34.01 114.714 34.26 115.834 34.26ZM135.171 36.15C133.531 36.15 132.091 35.81 130.851 35.13C129.611 34.43 128.641 33.48 127.941 32.28C127.241 31.06 126.891 29.67 126.891 28.11C126.891 26.55 127.221 25.17 127.881 23.97C128.561 22.77 129.481 21.83 130.641 21.15C131.821 20.45 133.141 20.1 134.601 20.1C136.081 20.1 137.391 20.44 138.531 21.12C139.691 21.78 140.601 22.72 141.261 23.94C141.921 25.14 142.251 26.53 142.251 28.11C142.251 28.21 142.241 28.32 142.221 28.44C142.221 28.54 142.221 28.65 142.221 28.77H128.511V27.18H141.081L140.241 27.81C140.241 26.67 139.991 25.66 139.491 24.78C139.011 23.88 138.351 23.18 137.511 22.68C136.671 22.18 135.701 21.93 134.601 21.93C133.521 21.93 132.551 22.18 131.691 22.68C130.831 23.18 130.161 23.88 129.681 24.78C129.201 25.68 128.961 26.71 128.961 27.87V28.2C128.961 29.4 129.221 30.46 129.741 31.38C130.281 32.28 131.021 32.99 131.961 33.51C132.921 34.01 134.011 34.26 135.231 34.26C136.191 34.26 137.081 34.09 137.901 33.75C138.741 33.41 139.461 32.89 140.061 32.19L141.261 33.57C140.561 34.41 139.681 35.05 138.621 35.49C137.581 35.93 136.431 36.15 135.171 36.15ZM153.566 36.15C152.006 36.15 150.606 35.81 149.366 35.13C148.146 34.43 147.186 33.48 146.486 32.28C145.786 31.06 145.436 29.67 145.436 28.11C145.436 26.53 145.786 25.14 146.486 23.94C147.186 22.74 148.146 21.8 149.366 21.12C150.606 20.44 152.006 20.1 153.566 20.1C154.906 20.1 156.116 20.36 157.196 20.88C158.276 21.4 159.126 22.18 159.746 23.22L158.156 24.3C157.616 23.5 156.946 22.91 156.146 22.53C155.346 22.15 154.476 21.96 153.536 21.96C152.416 21.96 151.406 22.22 150.506 22.74C149.606 23.24 148.896 23.95 148.376 24.87C147.856 25.79 147.596 26.87 147.596 28.11C147.596 29.35 147.856 30.43 148.376 31.35C148.896 32.27 149.606 32.99 150.506 33.51C151.406 34.01 152.416 34.26 153.536 34.26C154.476 34.26 155.346 34.07 156.146 33.69C156.946 33.31 157.616 32.73 158.156 31.95L159.746 33.03C159.126 34.05 158.276 34.83 157.196 35.37C156.116 35.89 154.906 36.15 153.566 36.15ZM166.577 36V21.54L167.117 22.11H160.607V20.25H174.677V22.11H168.167L168.707 21.54V36H166.577ZM177.757 36V20.25H179.887V32.76L190.417 20.25H192.307V36H190.177V23.46L179.677 36H177.757Z" fill="white"/>
<line y1="62.5" x2="244" y2="62.5" stroke="white"/>
<path d="M243.707 27.7071C244.098 27.3166 244.098 26.6834 243.707 26.2929L237.343 19.9289C236.953 19.5384 236.319 19.5384 235.929 19.9289C235.538 20.3195 235.538 20.9526 235.929 21.3431L241.586 27L235.929 32.6569C235.538 33.0474 235.538 33.6805 235.929 34.0711C236.319 34.4616 236.953 34.4616 237.343 34.0711L243.707 27.7071ZM215 28L243 28V26L215 26V28Z" fill="white"/>
</svg>
