<svg width="263" height="23" viewBox="0 0 263 23" fill="none" xmlns="http://www.w3.org/2000/svg">
<path d="M2.4 11.17H13.5V13.09H2.4V11.17ZM2.64 22H0.42V0.999999H14.82V2.92H2.64V22ZM15.0483 22L24.6483 0.999999H26.8383L36.4383 22H34.0983L25.2783 2.29H26.1783L17.3583 22H15.0483ZM18.8283 16.39L19.4883 14.59H31.6983L32.3583 16.39H18.8283ZM39.9122 22V0.999999H41.7422L56.2322 19.24H55.2722V0.999999H57.4622V22H55.6322L41.1722 3.76H42.1322V22H39.9122ZM68.3965 22V2.92H61.0165V0.999999H77.9965V2.92H70.6165V22H68.3965ZM77.1284 22L86.7284 0.999999H88.9184L98.5184 22H96.1784L87.3584 2.29H88.2584L79.4384 22H77.1284ZM80.9084 16.39L81.5684 14.59H93.7784L94.4384 16.39H80.9084ZM107.782 22.18C106.222 22.18 104.722 21.93 103.282 21.43C101.862 20.91 100.762 20.25 99.9823 19.45L100.852 17.74C101.592 18.46 102.582 19.07 103.822 19.57C105.082 20.05 106.402 20.29 107.782 20.29C109.102 20.29 110.172 20.13 110.992 19.81C111.832 19.47 112.442 19.02 112.822 18.46C113.222 17.9 113.422 17.28 113.422 16.6C113.422 15.78 113.182 15.12 112.702 14.62C112.242 14.12 111.632 13.73 110.872 13.45C110.112 13.15 109.272 12.89 108.352 12.67C107.432 12.45 106.512 12.22 105.592 11.98C104.672 11.72 103.822 11.38 103.042 10.96C102.282 10.54 101.662 9.99 101.182 9.31C100.722 8.61 100.492 7.7 100.492 6.58C100.492 5.54 100.762 4.59 101.302 3.73C101.862 2.85 102.712 2.15 103.852 1.63C104.992 1.09 106.452 0.819999 108.232 0.819999C109.412 0.819999 110.582 0.989999 111.742 1.33C112.902 1.65 113.902 2.1 114.742 2.68L113.992 4.45C113.092 3.85 112.132 3.41 111.112 3.13C110.112 2.85 109.142 2.71 108.202 2.71C106.942 2.71 105.902 2.88 105.082 3.22C104.262 3.56 103.652 4.02 103.252 4.6C102.872 5.16 102.682 5.8 102.682 6.52C102.682 7.34 102.912 8 103.372 8.5C103.852 9 104.472 9.39 105.232 9.67C106.012 9.95 106.862 10.2 107.782 10.42C108.702 10.64 109.612 10.88 110.512 11.14C111.432 11.4 112.272 11.74 113.032 12.16C113.812 12.56 114.432 13.1 114.892 13.78C115.372 14.46 115.612 15.35 115.612 16.45C115.612 17.47 115.332 18.42 114.772 19.3C114.212 20.16 113.352 20.86 112.192 21.4C111.052 21.92 109.582 22.18 107.782 22.18ZM124.236 22V2.92H116.856V0.999999H133.836V2.92H126.456V22H124.236ZM137.383 22V0.999999H139.603V22H137.383ZM155.556 22.18C153.976 22.18 152.516 21.92 151.176 21.4C149.836 20.86 148.676 20.11 147.696 19.15C146.716 18.19 145.946 17.06 145.386 15.76C144.846 14.46 144.576 13.04 144.576 11.5C144.576 9.96 144.846 8.54 145.386 7.24C145.946 5.94 146.716 4.81 147.696 3.85C148.696 2.89 149.866 2.15 151.206 1.63C152.546 1.09 154.006 0.819999 155.586 0.819999C157.106 0.819999 158.536 1.08 159.876 1.6C161.216 2.1 162.346 2.86 163.266 3.88L161.856 5.29C160.996 4.41 160.046 3.78 159.006 3.4C157.966 3 156.846 2.8 155.646 2.8C154.386 2.8 153.216 3.02 152.136 3.46C151.056 3.88 150.116 4.49 149.316 5.29C148.516 6.07 147.886 6.99 147.426 8.05C146.986 9.09 146.766 10.24 146.766 11.5C146.766 12.76 146.986 13.92 147.426 14.98C147.886 16.02 148.516 16.94 149.316 17.74C150.116 18.52 151.056 19.13 152.136 19.57C153.216 19.99 154.386 20.2 155.646 20.2C156.846 20.2 157.966 20 159.006 19.6C160.046 19.2 160.996 18.56 161.856 17.68L163.266 19.09C162.346 20.11 161.216 20.88 159.876 21.4C158.536 21.92 157.096 22.18 155.556 22.18Z" fill="#243AD6"/>
<path d="M181.64 22.18C180.08 22.18 178.58 21.93 177.14 21.43C175.72 20.91 174.62 20.25 173.84 19.45L174.71 17.74C175.45 18.46 176.44 19.07 177.68 19.57C178.94 20.05 180.26 20.29 181.64 20.29C182.96 20.29 184.03 20.13 184.85 19.81C185.69 19.47 186.3 19.02 186.68 18.46C187.08 17.9 187.28 17.28 187.28 16.6C187.28 15.78 187.04 15.12 186.56 14.62C186.1 14.12 185.49 13.73 184.73 13.45C183.97 13.15 183.13 12.89 182.21 12.67C181.29 12.45 180.37 12.22 179.45 11.98C178.53 11.72 177.68 11.38 176.9 10.96C176.14 10.54 175.52 9.99 175.04 9.31C174.58 8.61 174.35 7.7 174.35 6.58C174.35 5.54 174.62 4.59 175.16 3.73C175.72 2.85 176.57 2.15 177.71 1.63C178.85 1.09 180.31 0.819999 182.09 0.819999C183.27 0.819999 184.44 0.989999 185.6 1.33C186.76 1.65 187.76 2.1 188.6 2.68L187.85 4.45C186.95 3.85 185.99 3.41 184.97 3.13C183.97 2.85 183 2.71 182.06 2.71C180.8 2.71 179.76 2.88 178.94 3.22C178.12 3.56 177.51 4.02 177.11 4.6C176.73 5.16 176.54 5.8 176.54 6.52C176.54 7.34 176.77 8 177.23 8.5C177.71 9 178.33 9.39 179.09 9.67C179.87 9.95 180.72 10.2 181.64 10.42C182.56 10.64 183.47 10.88 184.37 11.14C185.29 11.4 186.13 11.74 186.89 12.16C187.67 12.56 188.29 13.1 188.75 13.78C189.23 14.46 189.47 15.35 189.47 16.45C189.47 17.47 189.19 18.42 188.63 19.3C188.07 20.16 187.21 20.86 186.05 21.4C184.91 21.92 183.44 22.18 181.64 22.18ZM198.094 22V2.92H190.714V0.999999H207.694V2.92H200.314V22H198.094ZM216.104 22V14.2L216.614 15.58L207.704 0.999999H210.074L217.904 13.81H216.644L224.474 0.999999H226.694L217.784 15.58L218.294 14.2V22H216.104ZM229.697 22V0.999999H231.917V20.08H243.677V22H229.697ZM249.343 10.39H260.443V12.28H249.343V10.39ZM249.583 20.08H262.213V22H247.363V0.999999H261.763V2.92H249.583V20.08Z" fill="#0F1751"/>
</svg>
