<svg width="1584" height="83" viewBox="0 0 1584 83" fill="none" xmlns="http://www.w3.org/2000/svg">
<path d="M664.36 48V20H688.48V48H684.56V22.44L685.52 23.48H667.32L668.32 22.44V48H664.36ZM707.812 48.24C706.052 48.24 704.438 47.84 702.972 47.04C701.532 46.2133 700.372 45 699.492 43.4C698.638 41.8 698.212 39.8 698.212 37.4C698.212 35 698.625 33 699.452 31.4C700.305 29.8 701.452 28.6 702.892 27.8C704.358 27 705.998 26.6 707.812 26.6C709.892 26.6 711.732 27.0533 713.332 27.96C714.932 28.8667 716.198 30.1333 717.132 31.76C718.065 33.36 718.532 35.24 718.532 37.4C718.532 39.56 718.065 41.4533 717.132 43.08C716.198 44.7067 714.932 45.9733 713.332 46.88C711.732 47.7867 709.892 48.24 707.812 48.24ZM696.572 55.76V26.8H700.252V32.52L700.012 37.44L700.412 42.36V55.76H696.572ZM707.492 44.88C708.852 44.88 710.065 44.5733 711.132 43.96C712.225 43.3467 713.078 42.48 713.692 41.36C714.332 40.2133 714.652 38.8933 714.652 37.4C714.652 35.88 714.332 34.5733 713.692 33.48C713.078 32.36 712.225 31.4933 711.132 30.88C710.065 30.2667 708.852 29.96 707.492 29.96C706.158 29.96 704.945 30.2667 703.852 30.88C702.785 31.4933 701.932 32.36 701.292 33.48C700.678 34.5733 700.372 35.88 700.372 37.4C700.372 38.8933 700.678 40.2133 701.292 41.36C701.932 42.48 702.785 43.3467 703.852 43.96C704.945 44.5733 706.158 44.88 707.492 44.88ZM724.111 48V26.8H727.951V42.24L740.951 26.8H744.431V48H740.591V32.56L727.631 48H724.111ZM760.964 48.24C758.831 48.24 756.937 47.7733 755.284 46.84C753.631 45.9067 752.324 44.6267 751.364 43C750.404 41.3467 749.924 39.48 749.924 37.4C749.924 35.2933 750.404 33.4267 751.364 31.8C752.324 30.1733 753.631 28.9067 755.284 28C756.937 27.0667 758.831 26.6 760.964 26.6C763.071 26.6 764.951 27.0667 766.604 28C768.284 28.9067 769.591 30.1733 770.524 31.8C771.484 33.4 771.964 35.2667 771.964 37.4C771.964 39.5067 771.484 41.3733 770.524 43C769.591 44.6267 768.284 45.9067 766.604 46.84C764.951 47.7733 763.071 48.24 760.964 48.24ZM760.964 44.88C762.324 44.88 763.537 44.5733 764.604 43.96C765.697 43.3467 766.551 42.48 767.164 41.36C767.777 40.2133 768.084 38.8933 768.084 37.4C768.084 35.88 767.777 34.5733 767.164 33.48C766.551 32.36 765.697 31.4933 764.604 30.88C763.537 30.2667 762.324 29.96 760.964 29.96C759.604 29.96 758.391 30.2667 757.324 30.88C756.257 31.4933 755.404 32.36 754.764 33.48C754.124 34.5733 753.804 35.88 753.804 37.4C753.804 38.8933 754.124 40.2133 754.764 41.36C755.404 42.48 756.257 43.3467 757.324 43.96C758.391 44.5733 759.604 44.88 760.964 44.88ZM787.309 48.32C785.549 48.32 783.989 48.04 782.629 47.48C781.296 46.92 780.149 46.0933 779.189 45C778.229 43.88 777.496 42.48 776.989 40.8C776.509 39.0933 776.269 37.0933 776.269 34.8C776.269 32.9867 776.429 31.36 776.749 29.92C777.069 28.48 777.522 27.2 778.109 26.08C778.722 24.96 779.469 23.9867 780.349 23.16C781.256 22.3333 782.269 21.6533 783.389 21.12C784.536 20.56 785.789 20.1333 787.149 19.84L796.829 17.68L797.389 21.24L788.469 23.16C787.936 23.2667 787.296 23.4267 786.549 23.64C785.802 23.8533 785.042 24.1867 784.269 24.64C783.496 25.0667 782.776 25.6667 782.109 26.44C781.442 27.2133 780.909 28.2267 780.509 29.48C780.109 30.7067 779.909 32.2267 779.909 34.04C779.909 34.5467 779.922 34.9333 779.949 35.2C779.976 35.4667 780.002 35.7333 780.029 36C780.082 36.2667 780.122 36.6667 780.149 37.2L778.549 35.56C778.976 34.0933 779.656 32.8133 780.589 31.72C781.522 30.6267 782.642 29.7867 783.949 29.2C785.282 28.5867 786.736 28.28 788.309 28.28C790.282 28.28 792.029 28.7067 793.549 29.56C795.096 30.4133 796.309 31.5867 797.189 33.08C798.069 34.5733 798.509 36.28 798.509 38.2C798.509 40.1467 798.042 41.8933 797.109 43.44C796.202 44.96 794.909 46.16 793.229 47.04C791.549 47.8933 789.576 48.32 787.309 48.32ZM787.669 45.12C789.029 45.12 790.229 44.8267 791.269 44.24C792.309 43.6267 793.122 42.8133 793.709 41.8C794.296 40.76 794.589 39.6 794.589 38.32C794.589 37.04 794.296 35.9067 793.709 34.92C793.122 33.9333 792.309 33.16 791.269 32.6C790.229 32.0133 789.002 31.72 787.589 31.72C786.256 31.72 785.056 32 783.989 32.56C782.922 33.0933 782.096 33.8533 781.509 34.84C780.922 35.8 780.629 36.92 780.629 38.2C780.629 39.48 780.922 40.6533 781.509 41.72C782.122 42.76 782.949 43.5867 783.989 44.2C785.056 44.8133 786.282 45.12 787.669 45.12ZM815.233 48.24C813.473 48.24 811.86 47.84 810.393 47.04C808.953 46.2133 807.793 45 806.913 43.4C806.06 41.8 805.633 39.8 805.633 37.4C805.633 35 806.047 33 806.873 31.4C807.727 29.8 808.873 28.6 810.313 27.8C811.78 27 813.42 26.6 815.233 26.6C817.313 26.6 819.153 27.0533 820.753 27.96C822.353 28.8667 823.62 30.1333 824.553 31.76C825.487 33.36 825.953 35.24 825.953 37.4C825.953 39.56 825.487 41.4533 824.553 43.08C823.62 44.7067 822.353 45.9733 820.753 46.88C819.153 47.7867 817.313 48.24 815.233 48.24ZM803.993 55.76V26.8H807.673V32.52L807.433 37.44L807.833 42.36V55.76H803.993ZM814.913 44.88C816.273 44.88 817.487 44.5733 818.553 43.96C819.647 43.3467 820.5 42.48 821.113 41.36C821.753 40.2133 822.073 38.8933 822.073 37.4C822.073 35.88 821.753 34.5733 821.113 33.48C820.5 32.36 819.647 31.4933 818.553 30.88C817.487 30.2667 816.273 29.96 814.913 29.96C813.58 29.96 812.367 30.2667 811.273 30.88C810.207 31.4933 809.353 32.36 808.713 33.48C808.1 34.5733 807.793 35.88 807.793 37.4C807.793 38.8933 808.1 40.2133 808.713 41.36C809.353 42.48 810.207 43.3467 811.273 43.96C812.367 44.5733 813.58 44.88 814.913 44.88ZM840.973 48.24C838.706 48.24 836.706 47.7733 834.973 46.84C833.266 45.9067 831.933 44.6267 830.973 43C830.039 41.3733 829.573 39.5067 829.573 37.4C829.573 35.2933 830.026 33.4267 830.933 31.8C831.866 30.1733 833.133 28.9067 834.733 28C836.359 27.0667 838.186 26.6 840.213 26.6C842.266 26.6 844.079 27.0533 845.653 27.96C847.226 28.8667 848.453 30.1467 849.333 31.8C850.239 33.4267 850.693 35.3333 850.693 37.52C850.693 37.68 850.679 37.8667 850.653 38.08C850.653 38.2933 850.639 38.4933 850.613 38.68H832.573V35.92H848.613L847.053 36.88C847.079 35.52 846.799 34.3067 846.213 33.24C845.626 32.1733 844.813 31.3467 843.773 30.76C842.759 30.1467 841.573 29.84 840.213 29.84C838.879 29.84 837.693 30.1467 836.653 30.76C835.613 31.3467 834.799 32.1867 834.213 33.28C833.626 34.3467 833.333 35.5733 833.333 36.96V37.6C833.333 39.0133 833.653 40.28 834.293 41.4C834.959 42.4933 835.879 43.3467 837.053 43.96C838.226 44.5733 839.573 44.88 841.093 44.88C842.346 44.88 843.479 44.6667 844.493 44.24C845.533 43.8133 846.439 43.1733 847.213 42.32L849.333 44.8C848.373 45.92 847.173 46.7733 845.733 47.36C844.319 47.9467 842.733 48.24 840.973 48.24ZM865.89 48.24C863.73 48.24 861.796 47.7733 860.09 46.84C858.41 45.9067 857.09 44.6267 856.13 43C855.17 41.3733 854.69 39.5067 854.69 37.4C854.69 35.2933 855.17 33.4267 856.13 31.8C857.09 30.1733 858.41 28.9067 860.09 28C861.796 27.0667 863.73 26.6 865.89 26.6C867.81 26.6 869.516 26.9867 871.01 27.76C872.53 28.5067 873.703 29.6267 874.53 31.12L871.61 33C870.916 31.96 870.063 31.2 869.05 30.72C868.063 30.2133 866.996 29.96 865.85 29.96C864.463 29.96 863.223 30.2667 862.13 30.88C861.036 31.4933 860.17 32.36 859.53 33.48C858.89 34.5733 858.57 35.88 858.57 37.4C858.57 38.92 858.89 40.24 859.53 41.36C860.17 42.48 861.036 43.3467 862.13 43.96C863.223 44.5733 864.463 44.88 865.85 44.88C866.996 44.88 868.063 44.64 869.05 44.16C870.063 43.6533 870.916 42.88 871.61 41.84L874.53 43.68C873.703 45.1467 872.53 46.28 871.01 47.08C869.516 47.8533 867.81 48.24 865.89 48.24ZM883.428 48V29.16L884.388 30.16H875.668V26.8H895.028V30.16H886.348L887.268 29.16V48H883.428ZM898.954 48V26.8H902.794V42.24L915.794 26.8H919.274V48H915.434V32.56L902.474 48H898.954Z" fill="#243AD6"/>
<path d="M0 82L1584 82.0001" stroke="#243AD6" stroke-width="2"/>
</svg>
